<?xml version="1.0" encoding="utf-8"?>
<!-- Generator: Adobe Illustrator 26.0.1, SVG Export Plug-In . SVG Version: 6.00 Build 0)  -->
<svg version="1.1" id="Calque_1" xmlns="http://www.w3.org/2000/svg" xmlns:xlink="http://www.w3.org/1999/xlink" x="0px" y="0px"
	 viewBox="0 0 260 260" style="enable-background:new 0 0 260 260;" xml:space="preserve">
<style type="text/css">
	.st0{fill:#FFFFFF;}
</style>
<path id="path3021" class="st0" d="M220.51,88.96c0-6.94-1.96-12.77-10.18-12.77c-12.57,0-30.53,21.66-41.92,43.17
	c-10.99,22.28-21.26,47.7-34.9,82.58c-3.19,8.75-6.18,19.34-6.18,27.72c0,10.68,3.73,14.86,9.44,14.86
	c14.27,0,37.02-33.32,36.15-68.3C194.57,153.37,220.51,117.6,220.51,88.96z M97.77,8C77.61,8,55.27,27.06,55.27,69.38
	c0,45.29,22.62,86.09,58.01,108.48c-17.81-6.36-34.98-16.26-34.98-16.26c-12.27,6.75-39.33,30.62-39.33,62.05
	c0,20.36,12.2,29.34,26.51,29.34c48.53,0,86.99-84.96,86.99-158.66C152.47,25.85,114,8,97.77,8z"/>
</svg>
