<?xml version="1.0" encoding="utf-8"?>
<!-- Generator: Adobe Illustrator 26.0.1, SVG Export Plug-In . SVG Version: 6.00 Build 0)  -->
<svg version="1.1" xmlns="http://www.w3.org/2000/svg" xmlns:xlink="http://www.w3.org/1999/xlink" x="0px" y="0px"
	 viewBox="0 0 100 100" style="enable-background:new 0 0 100 100;" xml:space="preserve">
<style type="text/css">
	.st0{fill:#91C300;}
	.st1{fill:#00B4F1;}
	.st2{fill:#F8682C;}
	.st3{fill:#FFC300;}
</style>
<g id="Calque_1">
</g>
<g id="svg2">
	<g>
		<path class="st0" d="M88.9,51.15L98,19.62c-18.48,7.64-27.37,3.35-35.38-2.04L53.5,49.21C61.5,54.63,71.16,59.09,88.9,51.15z"/>
		<path class="st1" d="M37.91,83.21L37.91,83.21l9.24-31.76c-8.02-5.44-16.92-9.77-35.45-2.11L2.63,81.02
			C21.15,73.36,29.88,77.8,37.91,83.21z"/>
		<path class="st2" d="M48.69,45.72l9.11-31.46c-8.01-5.43-16.91-9.77-35.43-2.11l-9.12,31.61c7.36-3.04,13.16-4.43,18.03-4.39
			C38.66,39.43,43.86,42.47,48.69,45.72z"/>
		<path class="st3" d="M51.96,54.49l-9.1,31.44c8.01,5.43,16.9,9.77,35.4,2.11l9.12-31.5C68.89,64.19,59.98,59.89,51.96,54.49z"/>
	</g>
</g>
</svg>
